<svg width="16" height="16" viewBox="0 0 16 16" fill="none" xmlns="http://www.w3.org/2000/svg">
<path d="M6.95 11.45L12.2375 6.1625L11.1875 5.1125L6.95 9.35L4.8125 7.2125L3.7625 8.2625L6.95 11.45ZM8 15.5C6.9625 15.5 5.9875 15.3031 5.075 14.9094C4.1625 14.5156 3.36875 13.9812 2.69375 13.3062C2.01875 12.6312 1.48437 11.8375 1.09062 10.925C0.696875 10.0125 0.5 9.0375 0.5 8C0.5 6.9625 0.696875 5.9875 1.09062 5.075C1.48437 4.1625 2.01875 3.36875 2.69375 2.69375C3.36875 2.01875 4.1625 1.48437 5.075 1.09062C5.9875 0.696875 6.9625 0.5 8 0.5C9.0375 0.5 10.0125 0.696875 10.925 1.09062C11.8375 1.48437 12.6312 2.01875 13.3062 2.69375C13.9812 3.36875 14.5156 4.1625 14.9094 5.075C15.3031 5.9875 15.5 6.9625 15.5 8C15.5 9.0375 15.3031 10.0125 14.9094 10.925C14.5156 11.8375 13.9812 12.6312 13.3062 13.3062C12.6312 13.9812 11.8375 14.5156 10.925 14.9094C10.0125 15.3031 9.0375 15.5 8 15.5Z" fill="#00963F"/>
</svg>
